<?xml version="1.0" standalone="no"?><!DOCTYPE svg PUBLIC "-//W3C//DTD SVG 1.1//EN" "http://www.w3.org/Graphics/SVG/1.1/DTD/svg11.dtd"><svg t="1580897702570" class="icon" viewBox="0 0 1024 1024" version="1.1" xmlns="http://www.w3.org/2000/svg" p-id="3552" xmlns:xlink="http://www.w3.org/1999/xlink" width="32" height="32"><defs><style type="text/css"></style></defs><path d="M900.656 644.832c0 32.143-26.918 65.872-58.569 65.872H670.245c-20.816 0-39.528 21.441-39.528 21.441L510.054 857.504 389.419 732.146s-22.979-21.441-42.674-21.441H174.902c-31.65 0-58.567-33.73-58.567-65.872V208.255c0-32.155 25.084-58.214 56.022-58.214h672.274c30.939 0 56.025 26.059 56.025 58.214v436.577zM844.631 91.829H172.357c-61.877 0-112.045 52.13-112.045 116.426v436.577c0 64.297 51.29 123.564 114.59 123.564h170.749c29.762 31.758 152.943 159.501 152.943 159.501 5.47 5.699 14.334 5.699 19.804 0 0 0 90.189-102.425 148.949-159.501h174.741c63.3 0 114.591-59.268 114.591-123.564V208.255c-0.001-64.296-50.169-116.426-112.048-116.426zM732.587 382.88c-30.939 0-56.023 26.057-56.023 58.213 0 32.156 25.085 58.213 56.023 58.213 30.939 0 56.022-26.057 56.022-58.213 0.001-32.155-25.084-58.213-56.022-58.213z m-224.092 0c-30.939 0-56.022 26.057-56.022 58.213 0 32.156 25.085 58.213 56.022 58.213s56.022-26.057 56.022-58.213c0.001-32.155-25.084-58.213-56.022-58.213z m-224.092 0c-30.939 0-56.022 26.057-56.022 58.213 0 32.156 25.084 58.213 56.022 58.213s56.022-26.057 56.022-58.213c0.001-32.155-25.083-58.213-56.022-58.213z" p-id="3553" fill="#ffffff"></path></svg>