<?xml version="1.0" standalone="no"?><!DOCTYPE svg PUBLIC "-//W3C//DTD SVG 1.1//EN" "http://www.w3.org/Graphics/SVG/1.1/DTD/svg11.dtd"><svg t="1580651432842" class="icon" viewBox="0 0 1024 1024" version="1.1" xmlns="http://www.w3.org/2000/svg" p-id="3756" xmlns:xlink="http://www.w3.org/1999/xlink" width="32" height="32"><defs><style type="text/css"></style></defs><path d="M928 704a32 32 0 1 1 64 0v128c0 87.872-67.008 160-150.848 160H246.848C163.008 992 96 919.872 96 832v-128a32 32 0 1 1 64 0v128c0 53.504 39.424 96 86.848 96h594.304c47.36 0 86.848-42.496 86.848-96z m-118.656-246.656a32 32 0 0 1 45.312 45.312l-288 288a32 32 0 0 1-45.312 0l-288-288a32 32 0 1 1 45.312-45.312L544 722.752zM576 704a32 32 0 1 1-64 0V99.584a32 32 0 1 1 64 0z" fill="#ffffff" p-id="3757"></path></svg>