<?xml version="1.0" standalone="no"?><!DOCTYPE svg PUBLIC "-//W3C//DTD SVG 1.1//EN" "http://www.w3.org/Graphics/SVG/1.1/DTD/svg11.dtd"><svg t="1581259779645" class="icon" viewBox="0 0 1024 1024" version="1.1" xmlns="http://www.w3.org/2000/svg" p-id="10218" xmlns:xlink="http://www.w3.org/1999/xlink" width="32" height="32"><defs><style type="text/css"></style></defs><path d="M512 961.610044c248.312412 0 449.610044-201.297632 449.610044-449.610044s-201.297632-449.610044-449.610044-449.610044-449.610044 201.297632-449.610044 449.610044S263.687588 961.610044 512 961.610044zM237.492996 237.492996c35.672454-35.672454 77.196173-63.67215799 123.416867-83.222423 47.821145-20.22667 98.655927-30.482245 151.09116-30.482245 52.435233 0 103.270015 10.255575 151.09116 30.482245 46.22069399 19.549242 87.744413 47.549969 123.416867 83.222423 35.672454 35.672454 63.67215799 77.196173 83.222423 123.416867 20.22667 47.821145 30.482245 98.655927 30.482245 151.090137 0 52.435233-10.255575 103.270015-30.482245 151.09116-19.549242 46.22069399-47.549969 87.744413-83.222423 123.416867-35.672454 35.672454-77.196173 63.67215799-123.416867 83.222423-47.821145 20.22667-98.654904 30.482245-151.09116 30.482245-52.435233 0-103.268992-10.255575-151.09116-30.482245-46.22069399-19.549242-87.744413-47.549969-123.416867-83.222423-35.672454-35.672454-63.67215799-77.196173-83.222423-123.416867-20.22667-47.821145-30.482245-98.655927-30.482245-151.09116 0-52.435233 10.255575-103.268992 30.482245-151.090137C173.820837 314.689169 201.820542 273.16545 237.492996 237.492996z" p-id="10219" fill="#ffffff"></path><path d="M308.169685 718.332299L575.653739 516.01954701c3.094478-1.786693 3.094478-6.252401 0-8.03909301l-267.484054-202.312752c-3.094478-1.786693-6.961552 0.446162-6.961552 4.019547l0 404.625504C301.208133 717.886137 305.07520699 720.118991 308.169685 718.332299z" p-id="10220" fill="#ffffff"></path><path d="M625.921609 717.950605l92.229564 0c2.56338199 0 4.640694-2.365884 4.640694-5.28333l0-401.334551c0-2.917446-2.078335-5.28333-4.640694-5.28333l-92.229564 0c-2.56338199 0-4.641717 2.365884-4.641717 5.28333L621.279892 712.667276C621.280916 715.584722 623.358227 717.950605 625.921609 717.950605z" p-id="10221" fill="#ffffff"></path></svg>