<?xml version="1.0" standalone="no"?><!DOCTYPE svg PUBLIC "-//W3C//DTD SVG 1.1//EN" "http://www.w3.org/Graphics/SVG/1.1/DTD/svg11.dtd"><svg t="1581259631523" class="icon" viewBox="0 0 1024 1024" version="1.1" xmlns="http://www.w3.org/2000/svg" p-id="3732" xmlns:xlink="http://www.w3.org/1999/xlink" width="32" height="32"><defs><style type="text/css"></style></defs><path d="M642.56 298.496v61.44c0 5.12 1.536 9.216 4.096 10.752 2.56 1.536 6.656 0.512 11.264-2.048l129.536-80.384c4.608-3.072 7.68-6.656 7.68-10.24s-2.56-7.168-7.168-10.24l-130.56-83.968c-4.608-3.072-8.704-4.096-10.752-2.56-2.56 1.536-4.096 5.12-4.096 10.752v61.44h-290.304c-70.144 0-135.68 27.136-185.344 76.8-49.664 49.152-76.8 115.2-76.8 185.344 0 24.064 3.072 47.616 9.728 70.144 3.584 11.776 15.872 19.456 28.16 15.872 6.144-1.536 10.752-5.632 13.824-10.752 3.072-5.12 3.584-11.264 2.048-17.408-5.12-18.944-7.68-38.4-7.68-57.856 0-119.296 97.28-216.576 216.576-216.576h289.792zM894.464 372.736c-7.168-10.752-20.992-13.824-31.744-6.656-10.752 6.656-13.824 20.992-6.656 31.744 22.528 34.816 34.304 75.264 34.304 117.248 0 119.296-97.28 216.576-216.576 216.576h-312.832v-61.44c0-5.12-1.536-9.216-4.096-10.752-1.024-0.512-2.048-0.512-3.072-0.512-2.56 0-5.12 1.024-8.192 3.072l-129.536 80.384c-4.608 3.072-7.68 6.656-7.68 10.24s2.56 7.168 7.168 10.24l130.56 83.968c4.608 3.072 8.704 4.096 10.752 2.56 2.56-1.536 4.096-5.12 4.096-10.752v-61.44h313.344c70.144 0 135.68-27.136 185.344-76.8 49.664-49.664 76.8-115.2 76.8-185.344-0.512-50.688-14.848-99.84-41.984-142.336z" p-id="3733" fill="#ffffff"></path></svg>