<?xml version="1.0" standalone="no"?><!DOCTYPE svg PUBLIC "-//W3C//DTD SVG 1.1//EN" "http://www.w3.org/Graphics/SVG/1.1/DTD/svg11.dtd"><svg t="1580823091334" class="icon" viewBox="0 0 1024 1024" version="1.1" xmlns="http://www.w3.org/2000/svg" p-id="2903" xmlns:xlink="http://www.w3.org/1999/xlink" width="32" height="32"><defs><style type="text/css"></style></defs><path d="M512 0c53.894737 0 100.090226 46.195489 100.090226 100.090226s-46.195489 100.090226-100.090226 100.090225S411.909774 153.984962 411.909774 100.090226 458.105263 0 512 0zM512 415.759398c53.894737 0 100.090226 46.195489 100.090226 100.090226s-46.195489 92.390977-100.090226 92.390978S411.909774 569.744361 411.909774 515.849624s46.195489-100.090226 100.090226-100.090226z" p-id="2904" fill="#ffffff"></path><path d="M512 923.909774m-100.090226 0a100.090226 100.090226 0 1 0 200.180452 0 100.090226 100.090226 0 1 0-200.180452 0Z" p-id="2905" fill="#ffffff"></path></svg>