<?xml version="1.0" standalone="no"?><!DOCTYPE svg PUBLIC "-//W3C//DTD SVG 1.1//EN" "http://www.w3.org/Graphics/SVG/1.1/DTD/svg11.dtd"><svg t="1580908010103" class="icon" viewBox="0 0 1024 1024" version="1.1" xmlns="http://www.w3.org/2000/svg" p-id="2132" xmlns:xlink="http://www.w3.org/1999/xlink" width="32" height="32"><defs><style type="text/css"></style></defs><path d="M512 1024C229.22752 1024 0 794.77248 0 512S229.22752 0 512 0s512 229.22752 512 512-229.22752 512-512 512z m2.56-92.16c230.42048 0 417.28-186.85952 417.28-417.28S744.98048 97.28 514.56 97.28 97.28 284.13952 97.28 514.56 284.13952 931.84 514.56 931.84zM431.54432 316.7488l285.02016 168.36608c14.99648 8.97536 20.11648 28.53376 11.2128 43.65824a33.77152 33.77152 0 0 1-11.33568 11.43808l-284.89728 167.13728a31.57504 31.57504 0 0 1-43.27936-11.43808 32.47616 32.47616 0 0 1-4.26496-16.11264V344.17152C384 326.58432 398.14144 312.32 415.6928 312.32c5.48864 0 10.97728 1.47456 15.85152 4.4288z" p-id="2133" fill="#ffffff"></path></svg>