<?xml version="1.0" standalone="no"?><!DOCTYPE svg PUBLIC "-//W3C//DTD SVG 1.1//EN" "http://www.w3.org/Graphics/SVG/1.1/DTD/svg11.dtd"><svg t="1581259646054" class="icon" viewBox="0 0 1304 1024" version="1.1" xmlns="http://www.w3.org/2000/svg" p-id="4524" xmlns:xlink="http://www.w3.org/1999/xlink" width="40.75" height="32"><defs><style type="text/css"></style></defs><path d="M648.667695 318.743273c76.055273-77.265455 173.893818-111.709091 317.253818-111.709091h7.354182v83.781818c0 26.717091 17.873455 36.770909 39.842909 22.341818l196.701091-130.327273c21.876364-14.615273 21.597091-38.074182-0.465455-52.130909L1013.490967 6.423273c-22.155636-14.149818-40.215273-3.723636-40.215272 23.086545v83.316364h-7.354182c-167.191273 0-288.581818 44.125091-381.858909 139.170909-93.556364 95.045818-95.976727 183.202909-97.931637 254.045091-0.930909 30.440727-1.582545 56.692364-9.029818 80.616727-16.663273 53.992727-60.322909 103.796364-122.88 140.288-78.661818 46.173091-184.785455 69.818182-307.013818 68.514909H46.648785c-25.134545 0-45.614545 20.666182-45.893818 46.545455a46.452364 46.452364 0 0 0 45.428364 47.476363l11.357091 0.186182c67.584 0 131.258182-6.981818 188.974545-20.666182a566.458182 566.458182 0 0 0 153.320728-59.950545c82.571636-48.686545 141.125818-117.294545 164.770909-193.815273 11.357091-36.584727 12.288-72.145455 13.218909-106.402909 1.861818-65.163636 3.351273-121.576727 70.749091-189.998545zM47.300422 207.034182c153.6-1.675636 282.065455 36.584727 361.565091 107.799273a44.776727 44.776727 0 0 0 64.698182-4.468364 47.941818 47.941818 0 0 0-4.375273-66.373818c-46.173091-41.425455-104.075636-73.728-171.752727-95.976728-74.007273-24.389818-158.533818-36.119273-251.252364-35.095272a46.545455 46.545455 0 0 0-45.335273 47.662545 46.359273 46.359273 0 0 0 46.452364 46.545455z m1162.053818 606.301091l-195.863273-124.276364c-22.155636-14.242909-40.215273-3.723636-40.215272 22.993455v83.409454h-7.354182c-128.186182 0-226.676364-39.377455-309.806546-123.904a45.056 45.056 0 0 0-64.884363 0.372364 48.034909 48.034909 0 0 0 0.186181 66.653091c100.165818 101.562182 222.673455 151.086545 374.504728 151.086545h7.354182v83.968c0 26.717091 17.873455 36.864 39.842909 22.062546l196.701091-130.141091c21.876364-14.708364 21.597091-38.074182-0.465455-52.224z" p-id="4525" fill="#ffffff"></path></svg>