<?xml version="1.0" standalone="no"?><!DOCTYPE svg PUBLIC "-//W3C//DTD SVG 1.1//EN" "http://www.w3.org/Graphics/SVG/1.1/DTD/svg11.dtd"><svg t="1581084779754" class="icon" viewBox="0 0 1024 1024" version="1.1" xmlns="http://www.w3.org/2000/svg" p-id="2125" xmlns:xlink="http://www.w3.org/1999/xlink" width="32" height="32"><defs><style type="text/css"></style></defs><path d="M873.895307 818.34513 567.549154 511.99386l306.34206-306.34206c15.338337-15.338337 15.338337-40.21184 0-55.550177-15.343453-15.338337-40.209794-15.338337-55.553247 0l-306.336944 306.34206L205.653847 150.101623c-15.338337-15.338337-40.209794-15.338337-55.549154 0-15.33936 15.343453-15.33936 40.21184 0 55.553247L456.446753 511.99386 150.104693 818.34513c-15.33936 15.338337-15.33936 40.209794 0 55.549154 15.338337 15.338337 40.209794 15.338337 55.549154 0l306.347177-306.347177 306.34206 306.347177c15.343453 15.343453 40.209794 15.343453 55.553247 0C889.234667 858.555947 889.234667 833.683467 873.895307 818.34513L873.895307 818.34513zM873.895307 818.34513" p-id="2126" fill="#C1C1C1"></path></svg>