<?xml version="1.0" standalone="no"?><!DOCTYPE svg PUBLIC "-//W3C//DTD SVG 1.1//EN" "http://www.w3.org/Graphics/SVG/1.1/DTD/svg11.dtd"><svg t="1580999621486" class="icon" viewBox="0 0 1024 1024" version="1.1" xmlns="http://www.w3.org/2000/svg" p-id="2981" xmlns:xlink="http://www.w3.org/1999/xlink" width="32" height="32"><defs><style type="text/css"></style></defs><path d="M505.176461 639.706801c-107.300154 0-194.214985-85.8913-194.214985-191.91204v-255.882721c0-106.02074 86.914831-191.91204 194.172338-191.91204s194.214985 85.8913 194.214984 191.91204v255.882721c0 106.02074-86.957478 191.91204-194.214984 191.91204z m376.957894-194.214985c0 194.342926-147.04727 354.269626-335.84607 374.825539v116.426637h170.545833c15.651493 0 28.189746 16.2912 28.189746 36.505935v41.154471c0 5.03236-3.198534 9.126484-7.079422 9.126484H272.323185c-3.838241 0-7.079422-4.094124-7.079422-9.126484v-41.154471c0-20.214735 12.5809-36.548582 28.232394-36.548582h165.982591v-116.98105A377.000541 377.000541 0 0 1 128.175919 445.491816c0-4.989713 4.094124-9.126484 9.126484-9.126483h68.533922c5.03236 0 9.169131 4.136771 9.169131 9.126483a290.128358 290.128358 0 0 0 290.128358 290.171005 290.128358 290.128358 0 0 0 290.171005-290.171005c0-4.989713 4.094124-9.126484 9.126483-9.126483h68.533922c5.03236 0 9.169131 4.136771 9.169131 9.126483z" p-id="2982" fill="#ffffff"></path></svg>