<?xml version="1.0" standalone="no"?><!DOCTYPE svg PUBLIC "-//W3C//DTD SVG 1.1//EN" "http://www.w3.org/Graphics/SVG/1.1/DTD/svg11.dtd"><svg t="1580651529524" class="icon" viewBox="0 0 1024 1024" version="1.1" xmlns="http://www.w3.org/2000/svg" p-id="5239" xmlns:xlink="http://www.w3.org/1999/xlink" width="32" height="32"><defs><style type="text/css"></style></defs><path d="M72.00000031 413.24C72.00000031 174.51999969 261.92 13.83999969 512 180.48000031c216.64000031-166.63999969 439.99999969-6 439.99999969 232.75999969C951.99999969 651.96000031 573.84000031 912.00000031 512 912.00000031 450.15999969 912.00000031 72.00000031 651.99999969 72.00000031 413.24z m451.32 432.72c13.96000031-6.48 31.63999969-16.39999969 51.27999938-28.92a1013.47999969 1013.47999969 0 0 0 139.8-108.88000031c110.56000031-102.55999969 177.6-209.20000031 177.6-294.91999969 0-205.60000031-178.92-311.71999969-343.39999969-185.20000031l-34.08 26.20000031-35.80000031-23.83999969C286.80000031 102.56 132.00000031 199.20000031 132.00000031 413.24c0 85.68 67.03999969 192.40000031 177.6 294.91999969a1013.47999969 1013.47999969 0 0 0 139.8 108.88000031c19.63999969 12.48 37.32 22.39999969 51.27999938 28.92a156 156 0 0 0 11.32000031 4.8 156 156 0 0 0 11.32000031-4.8z" fill="#ffffff" p-id="5240"></path></svg>