<?xml version="1.0" standalone="no"?><!DOCTYPE svg PUBLIC "-//W3C//DTD SVG 1.1//EN" "http://www.w3.org/Graphics/SVG/1.1/DTD/svg11.dtd"><svg t="1580632009637" class="icon" viewBox="0 0 1024 1024" version="1.1" xmlns="http://www.w3.org/2000/svg" p-id="2106" xmlns:xlink="http://www.w3.org/1999/xlink" width="32" height="32"><defs><style type="text/css"></style></defs><path d="M207.829333 301.610667c-9.659733 0-16.964267-2.978133-23.620267-9.634133-6.5792-6.5792-9.634133-14.08-9.634133-23.637333l0-19.191467c0-9.685333 2.986667-16.981333 9.634133-23.645867 6.656-6.647467 13.934933-9.6256 23.620267-9.6256l653.1328 0c9.693867 0 16.989867 2.978133 23.645867 9.6256 6.6816 6.664533 9.642667 13.960533 9.642667 23.645867l0 19.191467c0 9.5488-3.054933 17.058133-9.642667 23.620267-6.673067 6.673067-13.952 9.6512-23.645867 9.6512L207.829333 301.610667z" p-id="2107" fill="#"></path><path d="M207.829333 551.424c-9.659733 0-16.964267-2.961067-23.620267-9.642667-6.647467-6.673067-9.634133-13.952-9.634133-23.645867l0-19.182933c0-9.685333 2.986667-16.981333 9.634133-23.645867 6.656-6.664533 13.960533-9.642667 23.620267-9.642667l653.1328 0c9.693867 0 16.964267 2.978133 23.645867 9.642667 6.6816 6.664533 9.642667 13.952 9.642667 23.645867l0 19.182933c0 9.693867-2.961067 16.964267-9.642667 23.645867-6.673067 6.6816-13.952 9.642667-23.645867 9.642667L207.829333 551.424z" p-id="2108" fill="#"></path><path d="M207.829333 826.922667c-9.659733 0-16.964267-2.9696-23.620267-9.642667-6.647467-6.673067-9.634133-13.952-9.634133-23.620267l0-19.2c0-9.565867 3.063467-17.066667 9.634133-23.645867 6.5536-6.5536 14.08-9.608533 23.620267-9.608533l653.1328 0c9.693867 0 16.989867 2.961067 23.662933 9.634133 6.562133 6.562133 9.617067 14.0544 9.617067 23.6288l0 19.2c0 9.668267-2.961067 16.938667-9.642667 23.620267-6.673067 6.673067-13.952 9.642667-23.645867 9.642667L207.829333 826.9312z" p-id="2109" fill="#"></path><path d="M860.970667 741.205333" p-id="2110" fill="#515151"></path></svg>