<?xml version="1.0" standalone="no"?><!DOCTYPE svg PUBLIC "-//W3C//DTD SVG 1.1//EN" "http://www.w3.org/Graphics/SVG/1.1/DTD/svg11.dtd"><svg t="1580904024838" class="icon" viewBox="0 0 1024 1024" version="1.1" xmlns="http://www.w3.org/2000/svg" p-id="3380" xmlns:xlink="http://www.w3.org/1999/xlink" width="32" height="32"><defs><style type="text/css"></style></defs><path d="M869.376 200.6784L542.2592 527.7952a38.4 38.4 0 0 1-54.2976-54.2976l320.512-320.512h-162.5088c-14.976 0-35.6352-11.776-35.5072-36.48 0.1024-24.7296 20.5312-36.1472 35.5072-36.1472h216.4992a81.4592 81.4592 0 0 1 81.2032 81.4592v210.56c0 15.104-10.24 30.0544-34.7904 30.9248-24.5248 0.896-39.5008-15.8464-39.5008-30.9248V200.6784zM945.024 588.8H947.2v153.6a204.8 204.8 0 0 1-204.8 204.8H281.6a204.8 204.8 0 0 1-204.8-204.8V281.6a204.8 204.8 0 0 1 204.8-204.8h153.6v2.176a38.4 38.4 0 1 1 0 72.448V153.6h-128a153.6 153.6 0 0 0-153.6 153.6v409.6a153.6 153.6 0 0 0 153.6 153.6h409.6a153.6 153.6 0 0 0 153.6-153.6v-128h2.176a38.4 38.4 0 0 1 72.448 0z" p-id="3381" fill="#ffffff"></path></svg>