<?xml version="1.0" standalone="no"?><!DOCTYPE svg PUBLIC "-//W3C//DTD SVG 1.1//EN" "http://www.w3.org/Graphics/SVG/1.1/DTD/svg11.dtd"><svg t="1580651895541" class="icon" viewBox="0 0 1024 1024" version="1.1" xmlns="http://www.w3.org/2000/svg" p-id="9939" xmlns:xlink="http://www.w3.org/1999/xlink" width="32" height="32"><defs><style type="text/css"></style></defs><path d="M484.881655 765.104552a34.85131 34.85131 0 0 1-31.426207-9.110069l-107.696551-105.260138a33.085793 33.085793 0 0 1 0-47.527724 34.957241 34.957241 0 0 1 48.657655 0l84.921379 82.97931 195.301517-190.923034a34.533517 34.533517 0 0 1 48.09269 0 32.697379 32.697379 0 0 1 0 46.998069l-218.288552 213.415724a34.145103 34.145103 0 0 1-19.561931 9.427862z m225.633104-517.155311h-66.206897V139.22869c0-41.101241-37.323034-74.540138-83.226483-74.540138h-98.162758c-45.903448 0-83.226483 33.438897-83.226483 74.540138v108.720551H313.520552V139.22869C313.520552 62.49931 380.539586 0 462.88331 0h98.198069c82.379034 0 149.398069 62.464 149.398069 139.22869v108.720551z" fill="#2fc379" p-id="9940"></path><path d="M793.282207 182.907586H230.717793C157.025103 182.907586 97.31531 240.039724 97.31531 310.377931L70.62069 896.529655C70.62069 966.973793 130.365793 1024 204.058483 1024H819.906207C893.634207 1024 953.37931 966.938483 953.37931 896.529655l-26.69462-586.151724c0-70.373517-59.745103-127.470345-133.402483-127.470345m0 64.723862c37.075862 0 67.266207 28.142345 67.266207 62.746483v1.412414l0.03531 1.412414 26.624 584.527448c-0.670897 34.039172-30.614069 61.581241-67.266207 61.581241H204.093793c-36.687448 0-66.56-27.542069-67.266207-61.581241l26.624-584.492138 0.035311-1.412414V310.377931c0-34.604138 30.190345-62.746483 67.266206-62.746483h562.564414" fill="#2fc379" p-id="9941"></path></svg>