<?xml version="1.0" standalone="no"?><!DOCTYPE svg PUBLIC "-//W3C//DTD SVG 1.1//EN" "http://www.w3.org/Graphics/SVG/1.1/DTD/svg11.dtd"><svg t="1580649911606" class="icon" viewBox="0 0 1024 1024" version="1.1" xmlns="http://www.w3.org/2000/svg" p-id="2527" xmlns:xlink="http://www.w3.org/1999/xlink" width="32" height="32"><defs><style type="text/css"></style></defs><path d="M130.265 870.036A122.453 160 68.891 1 0 428.792 754.79a122.453 160 68.891 1 0-298.527 115.246zM591.082 774.047A122.453 160 68.891 1 0 889.61 658.8a122.453 160 68.891 1 0-298.528 115.246z" p-id="2528" fill="#2fc379"></path><path d="M783.787 98.56L428.373 211.627a86.4 86.4 0 0 0-61.44 82.773v495.787H435.2v-401.92c0-8.107 5.12-15.36 13.227-17.494l355.84-113.493c1.706-0.427 3.413-0.853 5.12-0.853 8.96 0 18.346 7.253 18.346 18.346v418.134H896v-512c0-58.027-56.32-99.414-112.213-82.347z" p-id="2529" fill="#2fc379"></path></svg>