<?xml version="1.0" standalone="no"?><!DOCTYPE svg PUBLIC "-//W3C//DTD SVG 1.1//EN" "http://www.w3.org/Graphics/SVG/1.1/DTD/svg11.dtd"><svg t="1580651619692" class="icon" viewBox="0 0 1024 1024" version="1.1" xmlns="http://www.w3.org/2000/svg" p-id="9642" xmlns:xlink="http://www.w3.org/1999/xlink" width="32" height="32"><defs><style type="text/css"></style></defs><path d="M701.55037 227.53c73.303 0 132.726-50.929 132.726-113.765S774.85337 0 701.55037 0 568.82537 50.929 568.82537 113.765 628.24837 227.53 701.55037 227.53z" p-id="9643" fill="#2fc379"></path><path d="M907.57937 216.798c-69.207 94.577-161.85 105.536-261.584 47.781-6.788-3.944-36.898-20.136-43.572-24.004-160.408-92.908-320.627-56.503-428.06 90.33-45.657 62.456 59.917 121.652 105.082 59.915 55.517-75.843 126.127-97.8 203.335-73.757-39.552 66.932-74.098 133.484-122.866 228.023-48.805 94.576-156.502 170.078-259.99 110.996-74.668-42.586-142.017 62.154-67.539 104.55 141.258 80.584 306.938 31.096 391.503-73.644 2.92 1.517 6.03 2.92 9.405 4.096 69.093 23.474 159.65 86.006 187.257 108.153 27.607 22.146 75.009 135.038 103.147 191.77 34.13 68.827 144.405 18.695 110.124-50.437-31.854-64.353-85.437-192.755-127.227-225.254-33.485-26.09-98.558-74.592-153.734-102.085 37.352-70.534 76.222-140.31 117.14-208.948 130.412 39.021 254.378-6.94 342.66-127.607 45.695-62.419-59.917-121.614-105.043-59.916z" p-id="9644" fill="#2fc379"></path></svg>