<?xml version="1.0" standalone="no"?><!DOCTYPE svg PUBLIC "-//W3C//DTD SVG 1.1//EN" "http://www.w3.org/Graphics/SVG/1.1/DTD/svg11.dtd"><svg t="1580978302024" class="icon" viewBox="0 0 1408 1024" version="1.1" xmlns="http://www.w3.org/2000/svg" p-id="12285" xmlns:xlink="http://www.w3.org/1999/xlink" width="44" height="32"><defs><style type="text/css"></style></defs><path d="M0 37.888C0 18.944 18.336 0 48.928 0H1094.4c24.448 0 48.896 14.208 48.896 37.888-6.08 23.68-24.448 37.888-55.04 37.888H42.816C18.336 75.776 0 61.568 0 37.888z m48.448 391.584H684.48c24.224 0 48.448 14.208 48.448 37.888 0 18.944-18.144 37.92-48.448 37.92H48.448C24.224 505.28 0 491.04 0 467.36c6.08-23.68 24.224-37.888 48.448-37.888z m0.16 429.472h577.056c24.32 0 48.64 14.208 48.64 37.888 0 18.976-18.24 37.92-48.64 37.92H48.64C24.288 934.72 0 920.544 0 896.832c6.08-23.68 24.32-37.888 48.608-37.888zM1384.736 279.584c24.864 12.416 31.04 43.424 12.416 62.048-12.416 24.8-37.248 31.04-62.08 18.592l-124.224-68.224V831.68c0 105.472-86.976 192.32-192.576 192.32s-192.512-99.264-192.512-204.704c0-105.472 86.944-192.32 192.512-192.32 43.52 0 74.56 12.416 105.6 31.04V211.328c0-12.416 6.208-31.04 18.624-37.216 18.656-12.416 37.28-18.624 55.904-6.208l186.336 111.68zM1016.32 966.944c70.176 0 127.04-57.696 127.04-128.896 0-71.2-56.864-128.96-127.04-128.96-70.144 0-127.04 57.76-127.04 128.96 0 71.2 56.896 128.928 127.04 128.928z" fill="#2fc379" p-id="12286"></path></svg>